<svg id="SvgjsSvg1001" width="288" height="288" xmlns="http://www.w3.org/2000/svg" version="1.1" xmlns:xlink="http://www.w3.org/1999/xlink" xmlns:svgjs="http://svgjs.com/svgjs"><defs id="SvgjsDefs1002"></defs><g id="SvgjsG1008" transform="matrix(0.9167,0,0,0.9167,11.939015790046,12.051383233723868)"><svg xmlns="http://www.w3.org/2000/svg" enable-background="new 0 0 42.7 42.7" viewBox="0 0 42.7 42.7" width="288" height="288"><path fill="#1aa0cb" d="M21.4,0c-0.4,0-0.8,0.2-1.2,0.5c-0.3,0.3-0.6,0.8-0.8,1.4c-0.5,1.2-0.7,2.9-0.9,4.9c-0.2,2-0.2,4.3-0.1,6.8	c-5.5,2.3-16.7,6.9-17.6,8c-1.2,1.4-0.8,3-0.3,4l18.4-3.7c0.4,4.9,0.9,9.7,1.4,13.5c-1.8,0.5-5.2,1.6-5.9,2.2c-1,0.9-1,3.8-1,3.8
	l7.5-0.6c0.2,1.2,0.3,2,0.3,2l0,0.1h0.1h0.1h0.1l0-0.1c0,0,0.1-0.7,0.3-2l7.5,0.6c0,0,0-2.9-1-3.8c-0.7-0.6-4.1-1.7-5.9-2.2
	c0.5-3.8,1-8.6,1.4-13.5l18.2,3.7c0.5-1.1,0.9-2.6-0.3-4c-0.9-1-11.8-5.6-17.4-7.9c0.1-2.5,0-4.9-0.1-6.9v0c-0.2-2-0.4-3.7-0.9-4.9
	c-0.2-0.6-0.5-1.1-0.8-1.4C22.3,0.2,21.9,0,21.4,0L21.4,0L21.4,0L21.4,0C21.4,0,21.4,0,21.4,0z" class="color32323d svgShape"></path></svg></g></svg>